<?xml version="1.0" standalone="no"?>
<!DOCTYPE svg PUBLIC "-//W3C//DTD SVG 1.1//EN" "http://www.w3.org/Graphics/SVG/1.1/DTD/svg11.dtd" >
<svg xmlns="http://www.w3.org/2000/svg">
  <metadata>Created by iconfont</metadata>
  <defs>
  <font id="iconfont" horiz-adv-x="1024">
    <font-face
      font-family="iconfont"
      font-weight="400"
      font-stretch="normal"
      units-per-em="1024"
      ascent="896"
      descent="-128"
    />
      <missing-glyph />
      
      <glyph glyph-name="sousuo" unicode="&#58961;" d="M966.4-28.8l-230.4 227.2c60.8 67.2 96 156.8 96 256 0 217.6-176 390.4-390.4 390.4-217.6 0-390.4-176-390.4-390.4 0-217.6 176-390.4 390.4-390.4 99.2 0 188.8 35.2 256 96l230.4-227.2c9.6-9.6 28.8-9.6 38.4 0C979.2-54.4 979.2-38.4 966.4-28.8zM102.4 454.4c0 185.6 150.4 339.2 339.2 339.2s339.2-150.4 339.2-339.2c0-89.6-35.2-172.8-92.8-233.6-3.2 0-3.2-3.2-6.4-3.2-3.2-3.2-3.2-3.2-3.2-6.4-60.8-57.6-144-92.8-233.6-92.8C256 115.2 102.4 268.8 102.4 454.4z"  horiz-adv-x="1024" />
      
      <glyph glyph-name="xiala" unicode="&#59065;" d="M512.726547 220.681354c-8.063653 0-15.790638 3.245927-21.435195 9.006118L231.175103 495.093191c-11.603269 11.837606-11.410887 30.840402 0.427742 42.442648 11.837606 11.601222 30.841426 11.410887 42.442648-0.427742l238.681054-243.534596L751.407602 537.108097c11.601222 11.839653 30.602995 12.033058 42.442648 0.427742 11.839653-11.603269 12.031011-30.605042 0.427742-42.442648L534.161742 229.687472C528.517185 223.927281 520.791224 220.681354 512.726547 220.681354z"  horiz-adv-x="1024" />
      
      <glyph glyph-name="fanhui" unicode="&#59135;" d="M700.371228 501.474528 174.028569 501.474528l255.952416 227.506551c12.389168 11.011798 13.505595 29.980825 2.492774 42.369993-11.011798 12.386098-29.977755 13.506619-42.367947 2.492774L76.425623 495.024629c-6.960529-5.496178-11.434423-14.003945-11.434423-23.561625 0-0.013303 0.001023-0.026606 0.001023-0.039909 0-0.01228-0.001023-0.025583-0.001023-0.037862 0-0.473791 0.01535-0.946558 0.037862-1.418302 0.001023-0.016373 0.001023-0.032746 0.001023-0.049119 0.39295-8.030907 3.992941-15.595186 10.034541-20.962427l315.040163-280.028764c5.717212-5.083785 12.83533-7.580652 19.925818-7.580652 8.274454 0 16.514115 3.403516 22.442128 10.07445 11.011798 12.387122 9.896394 31.357172-2.492774 42.367947l-256.128425 227.665163 526.518668 0c109.219517 0 198.075241-88.855724 198.075241-198.075241s-88.855724-198.075241-198.075241-198.075241L354.324888 45.303045c-16.57449 0-30.011524-13.437034-30.011524-30.011524s13.437034-30.011524 30.011524-30.011524l346.046341 0c142.31631 0 258.098289 115.783003 258.098289 258.098289S842.686515 501.474528 700.371228 501.474528z"  horiz-adv-x="1024" />
      
      <glyph glyph-name="wodedingdan" unicode="&#58965;" d="M883.2 835.2l-89.6 0c-12.8 0-25.6-9.6-25.6-25.6s9.6-25.6 25.6-25.6l89.6 0c25.6 0 48-22.4 48-48l0-713.6c0-25.6-22.4-48-48-48l-736 0c-25.6 0-48 22.4-48 48l0 713.6c0 25.6 22.4 48 48 48l99.2 0c12.8 0 25.6 9.6 25.6 25.6s-9.6 25.6-25.6 25.6l-99.2 0c-54.4 0-96-41.6-96-96l0-713.6c0-54.4 41.6-96 96-96l736 0c54.4 0 96 41.6 96 96l0 713.6C979.2 793.6 934.4 835.2 883.2 835.2zM393.6 787.2l240 0c12.8 0 25.6 9.6 25.6 25.6s-9.6 25.6-25.6 25.6l-240 0c-12.8 0-25.6-9.6-25.6-25.6S380.8 787.2 393.6 787.2zM294.4 550.4l464 0c12.8 0 25.6 9.6 25.6 25.6s-9.6 25.6-25.6 25.6l-464 0c-12.8 0-25.6-9.6-25.6-25.6S278.4 550.4 294.4 550.4zM294.4 355.2l464 0c12.8 0 25.6 9.6 25.6 25.6s-9.6 25.6-25.6 25.6l-464 0c-12.8 0-25.6-9.6-25.6-25.6S278.4 355.2 294.4 355.2zM294.4 160l464 0c12.8 0 25.6 9.6 25.6 25.6s-9.6 25.6-25.6 25.6l-464 0c-12.8 0-25.6-9.6-25.6-25.6S278.4 160 294.4 160z"  horiz-adv-x="1024" />
      
      <glyph glyph-name="shouye" unicode="&#59083;" d="M958.400956 444.45079c-0.058328 5.760191-2.597151 11.215436-6.965645 14.97097L524.345166 826.488857c-7.498788 6.445806-18.581194 6.445806-26.079982 0L309.582871 664.3245l0 102.017488c0 11.04966-8.901741 19.532869-19.951401 19.532869l-88.034009 0c-11.048637 0-19.928888-8.482185-19.928888-19.532869l0-211.954343L71.176063 459.42176c-4.423753-3.800559-6.967692-9.341762-6.967692-15.173584l0-105.500822c0-7.819083 4.554736-14.921851 11.660574-18.183128 2.670829-1.226944 5.51562-1.824555 8.343015-1.824555 4.699022 0 9.346879 1.654686 13.048177 4.836145l53.29788 45.825698 0-324.100516c0-60.677964 49.364291-110.042255 110.042255-110.042255L764.792447-64.741257c60.677964 0 110.042255 49.364291 110.042255 110.042255L874.834702 368.973772l51.585889-44.335764c5.955642-5.119601 14.356986-6.282077 21.481244-2.965541 7.122211 3.313465 11.645225 10.488889 11.565407 18.342764L958.400956 444.45079zM221.578538 745.965915l48.095391 0 0-115.941616-48.095391-41.336454L221.578538 745.965915zM570.718333-24.725892 436.666244-24.725892 436.666244 195.357596c0 11.031241 8.976442 20.007683 20.007683 20.007683l94.0357 0c11.031241 0 20.007683-8.976442 20.007683-20.007683L570.71731-24.725892zM834.818313 400.104793l0-354.803795c0-38.612413-31.414477-70.02689-70.02689-70.02689l-154.058748 0L610.732675 195.357596c0 33.096792-26.926256 60.023048-60.023048 60.023048l-94.0357 0c-33.096792 0-60.023048-26.926256-60.023048-60.023048l0-220.084511L260.59925-24.726915c-38.612413 0-70.02689 31.414477-70.02689 70.02689L190.57236 400.104793c0 1.172709-0.121773 2.314719-0.315178 3.432169l322.113255 276.958846 322.70268-277.348726C834.921667 402.151405 834.818313 401.141402 834.818313 400.104793zM525.411451 722.052273c-7.502881 6.445806-18.587334 6.446829-26.086122-0.00307L104.223736 382.336104l0 52.726875 407.081439 349.870436 407.176606-349.9523 0.521886-51.205219L525.411451 722.052273z"  horiz-adv-x="1024" />
      
      <glyph glyph-name="car" unicode="&#58907;" d="M936.483248 531.449773l-83.803981 0c-3.986297 0-7.652811-1.187795-10.933587-2.961992l-37.786181 113.794647c-12.084807 64.741505-57.642918 95.95814-113.639752 95.95814L335.400582 738.240569c-64.275821 0-103.287171-41.93197-113.642151-95.896782l-37.880317-114.179786c-3.448062 1.997646-7.357012 3.285772-11.605531 3.285772L88.449815 531.449773c-12.879268 0-23.334179-10.435325-23.334179-23.353566l0-20.247672c0-12.879268 10.454912-23.334179 23.334179-23.334179l31.734884-5.421724c-10.017608-19.584122-15.738329-41.990331-15.738329-68.060055l-11.748035-134.317533c0-3.89436 0.284207-7.857672 0.768079-11.847967-0.444698-2.437347-0.768079-4.980623-0.768079-7.578862l0-161.594039c0-22.988414 18.660748-41.628776 41.65156-41.628776l63.5693 0c23.010399 0 41.647763 18.640362 41.647763 41.628776l0 51.945581 546.558633 0 0-51.941584c0-22.992411 18.64336-41.627776 41.653759-41.627776l63.571698 0c22.987415 0 41.644565 18.635365 41.644565 41.627776l0 161.590042c0 2.608232-0.319783 5.141514-0.764482 7.578862 0.463686 3.990295 0.764482 7.953607 0.764482 11.847967l-11.748035 134.313535c0 26.139278-5.740108 48.561475-15.794291 68.209154l31.029962 5.276822c12.899254 0 23.334179 10.45691 23.334179 23.334179l0 20.249671C959.821225 521.014448 949.382303 531.449773 936.483248 531.449773zM249.783431 555.363959l27.742591 73.844733 0.387337 1.730227c2.760728 14.933875 8.925948 17.594071 18.031774 29.123254l434.349311 0c9.187771-11.848966 14.915887-14.856927 17.44817-28.961364l28.186889-75.73705 10.318004-41.142505c-2.337415-30.10299-38.508691-53.87927-68.607284-53.87927l-409.564315 0c-30.124975 0-66.292454 23.77628-68.629269 53.87927L249.783431 555.363959zM269.226249 204.200448c-34.83778 0-63.063643 28.230859-63.063643 63.073036 0 34.841378 28.225863 63.063043 63.063643 63.063043 34.839379 0 63.069639-28.221866 63.069639-63.063043C332.295887 232.431308 304.065428 204.200448 269.226249 204.200448zM621.476623 250.729901l-0.008994 0c0-10.373966-8.400305-18.757283-18.76128-18.757283l-176.937636 0c-10.35438 0-18.76168 8.383316-18.76168 18.757283l0 52.711062c0 10.356978 8.400704 18.739295 18.76168 18.739295l176.937636 0c10.360975 0 18.770274-8.382317 18.770274-18.739295L621.476623 250.729901zM756.468698 204.200448c-34.83838 0-63.086028 28.230859-63.086028 63.073036 0 34.841378 28.247648 63.063043 63.086028 63.063043 34.83738 0 63.067041-28.221866 63.067041-63.063043C819.540735 232.431308 791.305879 204.200448 756.468698 204.200448z"  horiz-adv-x="1024" />
      
      <glyph glyph-name="baozhang" unicode="&#58923;" d="M922.004 787.383c-11.156 0-31.451 3.576-63.419 11.045-17.676 4.129-90.834 22.377-104.039 25.573-37.262 9.014-68.612 15.991-98.725 21.745-55.083 10.519-102.391 16.147-143.406 16.147-41.14 0-88.597-5.657-143.911-16.236-29.979-5.736-61.176-12.675-98.335-21.657-12.313-2.973-86.28-21.378-104.263-25.568-32.088-7.467-52.546-11.049-63.911-11.049h-22.817v-527.33c17.352-147.129 139.927-284.302 427.813-354.72l5.425-1.325 5.421 1.325c287.831 70.424 409.954 207.518 426.833 352.073l0.154 507.158v22.818h-22.819zM512.366 6.346c-231.67 57.945-325.084 163.164-337.942 271.357l0.15 419.837c11.464 1.762 25.483 4.659 43.061 8.752 16.185 3.767 81.43 20.003 91.958 22.549 32.032 7.737 58.812 13.695 84.37 18.582 46.18 8.832 85.376 13.509 118.403 13.509 32.916 0 71.978-4.649 117.939-13.427 25.678-4.904 52.588-10.891 84.714-18.666 11.314-2.736 75.833-18.829 91.735-22.544 17.427-4.072 31.312-6.96 42.658-8.725v-421.108c-13.192-107.876-106.338-212.396-337.049-270.117zM676.912 333.245h102.513v77.999h-151.541v40.113h120.34v211.71h-327.593v-211.71h118.112v-40.113h-153.768v-77.999h98.054c-28.239-34.193-64.628-63.895-109.197-89.141v303.080c13.372 35.656 24.514 72.774 33.427 111.426l-86.913 22.285c-19.325-89.141-46.799-167.139-82.455-233.995 4.457-23.782 8.148-56.479 11.143-98.054 1.462-11.909 2.228-20.824 2.228-26.741 4.457 7.417 11.143 17.063 20.057 28.972 8.914 13.372 15.6 23.017 20.057 28.972v-229.538h82.456v82.456c13.372-20.824 28.205-40.845 44.57-60.171 51.987 34.193 92.1 72.043 120.34 113.656v-135.94h89.139v138.168c22.285-38.65 60.171-75.77 113.656-111.425 4.457 5.954 10.376 16.365 17.827 31.198 11.875 20.788 20.788 35.656 26.743 44.572-47.565 22.283-83.952 49.026-109.196 80.225zM505.315 529.355v55.713h158.226v-55.713h-158.226z"  horiz-adv-x="1024" />
      
      <glyph glyph-name="qichepiao" unicode="&#58910;" d="M497.751484 301.528684c49.601698 49.495274 99.123578 99.075483 148.674111 148.622946 5.293563 5.293563 8.061606 11.648294 8.211009 20.060895-0.582261 10.311857-5.589298 18.826787-15.993253 23.277146-10.334369 4.425799-20.23281 2.830465-28.494984-4.927219-8.664334-8.137331-16.905018-16.72901-25.313525-25.137517-41.401945-41.394782-82.82538-82.771145-124.184347-124.20993-11.32186-11.344373-11.70253-27.516704-1.153266-38.272675C470.037283 290.198637 486.506373 290.308131 497.751484 301.528684zM536.261567 564.931792c12.281721 15.08558 4.813632 37.579897-14.057157 42.313711-10.908444 2.734274-19.565615-1.208525-27.212782-8.873088-48.470945-48.566112-97.018637-97.055476-145.519258-145.592936-1.804089-1.804089-3.638877-3.653203-5.062296-5.749958-5.809309-8.577353-6.644327-17.692964-1.991354-27.001981 4.773723-9.55768 12.9438-14.020318 22.985504-14.722306 8.506744 0.237407 15.08865 3.532453 20.802792 9.260921 48.855708 48.961108 97.788164 97.846492 146.690944 146.756435C534.059412 562.483021 535.225981 563.657776 536.261567 564.931792zM888.940978 582.97882c-16.004509 16.08842-32.077579 32.107255-48.133254 48.145533-18.673292 18.650779-40.24254 22.146393-64.318888 11.662621-8.218172-3.576455-17.416671-6.439666-26.275433-6.765077-49.554626-1.819438-82.332147 48.698119-61.426001 93.888344 11.233855 24.285103 7.438413 45.776579-11.450796 64.691371-15.909341 15.927761-31.804357 31.866778-47.756677 47.749514-33.271778 33.129538-81.962733 33.184797-115.230418-0.061398C377.909026 705.930083 241.501286 569.53667 105.148805 433.093115c-32.93511-32.957623-32.831756-81.863473-0.00307-114.875331 16.004509-16.092513 32.078603-32.111349 48.137347-48.145533 18.647709-18.622126 40.007179-22.187325 64.306608-11.769045 4.425799 1.898233 9.04091 3.311419 13.691837 4.536316 9.31004 2.451842 17.645892 1.985214 19.09694 1.859347 2.233877-0.193405 4.467755-0.421602 6.66991-0.856507 43.25413-8.566096 65.891709-52.629661 47.716768-92.740194-10.861372-23.969924-6.944156-45.530986 11.695367-64.200184 16.162098-16.190751 32.301683-32.404014 48.53746-48.52211 32.791847-32.55751 81.69872-32.601512 114.453728 0.127913 82.290191 82.229816 164.555823 164.484192 246.809175 246.749824 0.639566 0.534166 1.26276 1.095961 1.863441 1.696642 10.610662 10.610662 10.80509 27.621081 0.432859 37.992289-10.146081 10.146081-26.640754 10.174734-37.299511 0.251733-0.168846-0.167822-0.336668-0.336668-0.50449-0.50449-0.062422-0.061398-0.12689-0.11768-0.188288-0.179079-0.062422-0.061398-0.118704-0.12689-0.179079-0.188288-10.95347-10.952446-21.903869-21.905916-32.856315-32.858362-71.178109-71.178109-142.352125-142.352125-213.533304-213.526141-14.811334-14.807241-28.898167-14.778588-43.763736 0.076748-15.015995 15.004739-29.951149 30.098505-45.110407 44.956911-2.701528 2.64627-2.947122 4.623297-1.450025 8.002254 32.298614 72.938196-14.151301 155.808602-93.039 166.025291-21.920242 2.836605-43.060725-0.322341-63.139016-9.608845-3.624551-1.677199-5.706979-1.131777-8.43102 1.64343-15.129582 15.407921-30.500665 30.581506-45.73974 45.883003-13.20372 13.254885-13.222139 28.249391-0.036839 41.434691C279.286868 532.370189 415.295518 668.374746 551.314401 804.37214c13.175067 13.175067 28.183899 13.134135 41.438785-0.076748 15.294334-15.243169 30.475082-30.602995 45.890166-45.729507 2.683109-2.635013 2.979868-4.612041 1.464351-8.005324-31.997762-71.65804 10.715039-152.284335 87.99103-166.087713 6.458085-1.153266 13.075807-1.373277 19.621896-2.028193 17.355273 0.190335 33.776268 4.103458 49.392944 11.413957 3.14462 1.467421 5.084808 1.167592 7.559163-1.347694 15.275915-15.520485 30.749328-30.851659 46.131667-46.266743 13.1853-13.219069 13.226233-28.256554 0.058328-41.431621-8.30106-8.305153-16.607236-16.607236-24.909319-24.911366-0.01228-0.011256-0.024559-0.022513-0.035816-0.033769-0.01228-0.011256-0.022513-0.024559-0.033769-0.035816-0.101307-0.100284-0.201591-0.201591-0.294712-0.309038-10.278087-10.631128-10.365068-27.38572-0.104377-37.647435 10.372232-10.372232 27.381627-10.177803 37.992289 0.432859 0.695848 0.695848 1.343601 1.420349 1.949398 2.166339 7.870248 7.874341 15.743566 15.746636 23.612791 23.622C921.93237 501.013017 921.777851 549.962869 888.940978 582.97882z"  horiz-adv-x="1024" />
      
      <glyph glyph-name="dingdan" unicode="&#58922;" d="M327.68 487.040092l369.280092 0 0-41.600092L327.68 445.44 327.68 487.040092zM327.68 302.720092l225.920092 0 0-41.600092L327.68 261.12 327.68 302.720092zM778.239754 35.170433 245.76 35.170433c-11.053993 0-21.788431 2.169583-31.904637 6.448326-9.761036 4.128668-18.52288 10.03466-26.042366 17.554145-7.519486 7.51924-13.425478 16.28133-17.554145 26.04212-4.278743 10.116452-6.448326 20.85089-6.448326 31.904883L163.810525 671.360092c0 11.053993 2.169583 21.788431 6.448326 31.904883 4.128422 9.760791 10.03466 18.52288 17.554145 26.04212 7.519486 7.519486 16.28133 13.425723 26.04212 17.554145 10.116452 4.278989 20.85089 6.448326 31.904883 6.448326L326.432238 753.309567l0-41.018949-80.672238 0c-22.569265 0-40.930525-18.361261-40.930525-40.930525l0-554.240184c0-22.569265 18.361261-40.930525 40.930525-40.930525l532.479754 0c22.569265 0 40.930771 18.361261 40.930771 40.930525L819.170525 671.360092c0 22.569265-18.361506 40.930525-40.930771 40.930525L697.813385 712.290617l0 41.018949 80.42637 0c11.054238 0 21.788431-2.169583 31.904883-6.448326 9.760791-4.128422 18.52288-10.03466 26.042366-17.554145 7.51924-7.519486 13.425232-16.28133 17.554145-26.04212 4.278743-10.116452 6.448326-20.85089 6.448326-31.904883l0-554.240184c0-11.053993-2.169583-21.788431-6.448326-31.904883-4.128913-9.760791-10.03466-18.52288-17.554145-26.04212-7.519731-7.519486-16.281575-13.425478-26.042366-17.554145C800.028185 37.340016 789.293993 35.170433 778.239754 35.170433zM716.829475 630.370617 307.170525 630.370617l0 133.149475c0 28.248056 22.981419 51.229475 51.229475 51.229475l52.897497 0c18.91342 37.660554 57.71096 62.079846 100.702503 62.079846 42.991789 0 81.789083-24.419293 100.702258-62.079846l52.897497 0c28.248056 0 51.229475-22.981419 51.229475-51.229475L716.829229 630.370617zM348.189475 671.389567l327.621051 0 0 92.130525c0 5.630158-4.580367 10.210525-10.210525 10.210525l-81.080708 0-4.769251 13.818228c-9.962938 28.866779-37.189695 48.261619-67.750041 48.261619-30.560345 0-57.787103-19.39484-67.750286-48.261619l-4.769251-13.818228L358.4 773.730617c-5.630158 0-10.210525-4.580367-10.210525-10.210525L348.189475 671.389567z"  horiz-adv-x="1024" />
      
      <glyph glyph-name="bukaixin" unicode="&#58955;" d="M879.75 746.125C782.375 842.75 653 896 515.25 896s-267.125-53.25-364.375-149.875S0 520.75 0 384s53.625-265.375 150.875-362.125S377.625-128 515.25-128c137.75 0 267.25 53.25 364.5 150C1080.625 221.625 1080.625 546.375 879.75 746.125zM832.25 69.25C747.625-14.875 635-61.25 515.25-61.25c-119.75 0-232.25 46.375-316.875 130.375-84.625 84.125-131.25 195.875-131.25 314.875s46.75 230.75 131.25 314.875c84.75 84.125 197.25 130.375 316.875 130.375s232.25-46.25 316.875-130.375C1006.875 525.25 1006.875 242.75 832.25 69.25zM331.625 574.875c-34.75 0-63.125-28.125-63.125-62.75s28.25-62.75 63.125-62.75c34.875 0 63.125 28.125 63.125 62.75C394.75 546.875 366.5 574.875 331.625 574.875L331.625 574.875 331.625 574.875 331.625 574.875 331.625 574.875zM698.75 574.875c-34.75 0-63.125-28.125-63.125-62.75S663.875 449.5 698.75 449.5c34.875 0 63.125 28.125 63.125 62.75C761.875 546.875 733.625 574.875 698.75 574.875L698.75 574.875 698.75 574.875 698.75 574.875 698.75 574.875zM758.25 62.25c-11.625 0-22.625 7.125-27 18.75-33.5 89.75-120.375 150-216.125 150S332.5 170.75 299 81c-5.5-14.875-22.125-22.5-37-16.875-14.875 5.5-22.5 22.125-16.875 37 20.375 54.5 56.25 101.125 103.875 134.75 48.75 34.5 106.25 52.75 166.125 52.75S632.5 270.25 681.25 235.75c47.625-33.75 83.625-80.25 103.875-134.75 5.5-14.875-2-31.375-16.875-37C765 62.875 761.625 62.25 758.25 62.25z"  horiz-adv-x="1031" />
      
      <glyph glyph-name="anquanbaozhang" unicode="&#59532;" d="M512 832.8L160.8 669.6v-244.8c0-226.4 149.6-437.6 351.2-489.6 201.6 51.2 351.2 263.2 351.2 489.6V669.6L512 832.8z m-8-574.4l-45.6-45.6-45.6 45.6-90.4 90.4 45.6 45.6L458.4 304l204 204 45.6-45.6L504 258.4z"  horiz-adv-x="1024" />
      
      <glyph glyph-name="hangcheng" unicode="&#59553;" d="M128 512v-469.333333c0-23.616 19.072-42.666667 42.666667-42.666667h682.666666c23.488 0 42.666667 19.157333 42.666667 42.666667V512c0 23.616-19.072 42.666667-42.666667 42.666667H170.666667c-23.488 0-42.666667-19.157333-42.666667-42.666667z m-42.666667 0c0 47.146667 38.314667 85.333333 85.333334 85.333333h682.666666c47.146667 0 85.333333-38.122667 85.333334-85.333333v-469.333333c0-47.146667-38.314667-85.333333-85.333334-85.333334H170.666667c-47.146667 0-85.333333 38.122667-85.333334 85.333334V512z m256 85.333333V718.229333c0 1.664 8.128 7.104 21.205334 7.104h298.922666c13.162667 0 21.205333-5.376 21.205334-7.104V597.333333h42.666666V718.229333C725.333333 748.032 695.402667 768 661.461333 768H362.538667C328.682667 768 298.666667 747.946667 298.666667 718.229333V597.333333h42.666666z m341.333334-170.666666c0 11.776 9.472 21.333333 21.333333 21.333333 11.776 0 21.333333-9.493333 21.333333-21.333333v-298.666667c0-11.776-9.472-21.333333-21.333333-21.333333-11.776 0-21.333333 9.493333-21.333333 21.333333V426.666667z m-384 0c0 11.776 9.472 21.333333 21.333333 21.333333 11.776 0 21.333333-9.493333 21.333333-21.333333v-298.666667c0-11.776-9.472-21.333333-21.333333-21.333333-11.776 0-21.333333 9.493333-21.333333 21.333333V426.666667z"  horiz-adv-x="1024" />
      
      <glyph glyph-name="jingdian" unicode="&#58884;" d="M1089.415233 58.181818H125.798526c-12.579853 0-22.643735-5.031941-30.191646-12.579852-5.031941-7.547912-5.031941-17.611794 0-25.159706 5.031941-7.547912 17.611794-12.579853 30.191646-12.579852h963.616707c12.579853 0 22.643735 5.031941 30.191647 12.579852 5.031941 7.547912 5.031941 17.611794 0 25.159706-7.547912 7.547912-20.127764 12.579853-30.191647 12.579852z m-103.154791-125.798526H226.437346c-12.579853 0-22.643735-5.031941-30.191646-12.579852-5.031941-7.547912-5.031941-17.611794 0-25.159705 5.031941-7.547912 17.611794-12.579853 30.191646-12.579853h762.339067c12.579853 0 22.643735 5.031941 30.191646 12.579853 5.031941 7.547912 5.031941 17.611794 0 25.159705-7.547912 7.547912-20.127764 12.579853-32.707617 12.579852z m105.670762 374.879607c2.515971 0 5.031941-2.515971 10.063882-2.51597 10.063882 0 22.643735 5.031941 27.675676 15.095823 45.287469 60.383292 67.931204 133.346437 67.931204 208.825553C1197.601966 727.429975 1034.063882 888.452088 835.302211 888.452088 691.891892 888.452088 561.061425 802.909091 503.194103 672.078624L450.358722 745.041769c-7.547912 10.063882-17.611794 15.095823-30.191646 15.095823s-22.643735-7.547912-27.675676-15.095823L45.287469 194.044226c-10.063882-15.095823-5.031941-37.739558 10.063882-47.80344 15.095823-10.063882 37.739558 20.127764 47.80344 35.223587l319.528256 503.194104 317.012285-437.77887c5.031941-7.547912 15.095823-15.095823 27.675675-15.095823 10.063882 0 20.127764 5.031941 27.675676 12.579852l145.92629 171.085995 181.149877-239.017199c12.579853-15.095823 32.707617-42.771499 47.80344-32.707616 15.095823 10.063882 17.611794 32.707617 7.547911 47.80344l-85.542997 115.734643z m-25.159705 32.707617l-100.638821 130.830467c-7.547912 7.547912-15.095823 12.579853-27.675676 12.579852-10.063882 0-20.127764-5.031941-27.675675-12.579852l-143.41032-171.085995-226.437346 311.980344c7.547912 2.515971-10.063882 17.611794-5.031941 27.675675 47.80344 118.250614 163.538084 196.2457 294.36855 196.245701 173.601966 0 314.496314-135.862408 317.012285-304.432433 0-62.899263-20.127764-125.798526-60.383292-178.633906-2.515971-5.031941-20.127764-5.031941-20.127764-12.579853z"  horiz-adv-x="1237" />
      
      <glyph glyph-name="kezhangongyu" unicode="&#59625;" d="M853.333333 0h-42.666666v192h-85.333334v42.666667h128c-20.693333 12.458667-30.72 33.28-34.304 56.533333L802.112 405.333333H725.333333v42.666667h70.229334l-3.946667 21.333333h43.178667l26.410666-171.669333C867.050667 259.562667 899.84 231.424 938.666667 234.666667v-42.666667h-85.333334v-192z m-170.666666 0h256v-42.666667H85.333333v42.666667h42.666667V490.666667H42.666667v42.666666c38.570667-3.242667 71.36 24.896 77.226666 62.997334L146.304 768H189.44l-3.925333-21.333333h439.36l-3.946667 21.333333h43.178667l26.410666-171.669333C696.384 558.229333 729.173333 530.090667 768 533.333333v-42.666666h-85.333333v-490.666667z m-42.666667 490.666667H170.666667v-490.666667h469.333333V490.666667z m-405.333333-64h149.333333v-149.333334h-149.333333v149.333334z m0-192h149.333333v-149.333334h-149.333333v149.333334z m192 192h149.333333v-149.333334h-149.333333v149.333334z m0-192h149.333333v-149.333334h-149.333333v149.333334z m-149.333334 149.333333v-64h64v64h-64z m0-256h64v64h-64v-64z m192 256v-64h64v64h-64z m0-256h64v64h-64v-64z m179.029334 461.866667L631.445333 704H178.986667l-16.896-114.133333a120.426667 120.426667 0 0 0-28.16-60.8h542.592a120.426667 120.426667 0 0 0-28.16 60.8z"  horiz-adv-x="1024" />
      
      <glyph glyph-name="tuangou" unicode="&#58905;" d="M819.2 568.32h-122.88V691.2c0 16.896-13.824 30.72-30.72 30.72s-30.72-13.824-30.72-30.72v-122.88H204.8c-16.896 0-30.72-13.824-30.72-30.72s13.824-30.72 30.72-30.72h386.56L220.16 135.68c-11.776-12.288-11.776-31.232 0-43.52 11.776-12.288 31.232-12.288 43.52 0L634.88 463.36V76.8c0-16.896 13.824-30.72 30.72-30.72s30.72 13.824 30.72 30.72V506.88h122.88c16.896 0 30.72 13.824 30.72 30.72s-13.824 30.72-30.72 30.72m30.72 276.48H174.08c-68.096 0-122.88-54.784-122.88-122.88v-675.84c0-68.096 54.784-122.88 122.88-122.88h675.84c68.096 0 122.88 54.784 122.88 122.88V721.92c0 68.096-54.784 122.88-122.88 122.88m61.44-798.72c0-33.792-27.648-61.44-61.44-61.44H174.08c-33.792 0-61.44 27.648-61.44 61.44V721.92c0 33.792 27.648 61.44 61.44 61.44h675.84c33.792 0 61.44-27.648 61.44-61.44v-675.84z m0 0"  horiz-adv-x="1024" />
      
      <glyph glyph-name="jingdian1" unicode="&#58882;" d="M512 384m-448 0a448 448 0 1 1 896 0 448 448 0 1 1-896 0ZM512 384m-448 0a448 448 0 1 1 896 0 448 448 0 1 1-896 0ZM885.1 136H138.9C219.1 15.4 356.3-64 512-64s292.9 79.4 373.1 200zM487 456h50v-320h-50zM552 456h-80c-5.5 0-10 4.5-10 10v20c0 5.5 4.5 10 10 10h80c5.5 0 10-4.5 10-10v-20c0-5.5-4.5-10-10-10zM667 456h50v-320h-50zM732 456h-80c-5.5 0-10 4.5-10 10v20c0 5.5 4.5 10 10 10h80c5.5 0 10-4.5 10-10v-20c0-5.5-4.5-10-10-10zM307 456h50v-320h-50zM372 456h-80c-5.5 0-10 4.5-10 10v20c0 5.5 4.5 10 10 10h80c5.5 0 10-4.5 10-10v-20c0-5.5-4.5-10-10-10zM512 684.2l-282.4-167c-5.3-3.1-3.1-11.2 3.1-11.2h564.8c6.1 0 8.3 8.1 3.1 11.2l-282.4 167c-2 1.1-4.3 1.1-6.2 0z"  horiz-adv-x="1024" />
      
      <glyph glyph-name="jiudian" unicode="&#58883;" d="M512 384m-448 0a448 448 0 1 1 896 0 448 448 0 1 1-896 0ZM512 384m-448 0a448 448 0 1 1 896 0 448 448 0 1 1-896 0ZM885.1 136H138.9C219.1 15.4 356.3-64 512-64s292.9 79.4 373.1 200zM773.1 136h-240V504h220c11 0 20-9 20-20v-348zM662.3 136.3h-300v440c0 11 9 20 20 20h260c11 0 20-9 20-20v-440zM415 546h70v-42h-70zM535 546h70v-42h-70zM415 474h70v-42h-70zM535 474h70v-42h-70zM415 402h70v-42h-70zM535 402h70v-42h-70zM415 330h70v-42h-70zM535 330h70v-42h-70zM415 258h70v-42h-70zM535 258h70v-42h-70zM685 471h60v-36h-60zM685 399h60v-36h-60zM685 327h60v-36h-60zM685 255h60v-36h-60zM220.2 316h20v-180h-20zM161.8 284.8l68.4 62.2 68.3-62.2zM155.6 244.4l74.6 67.9 74.6-67.9zM147.8 199.9l82.4 75 82.3-75z"  horiz-adv-x="1024" />
      
      <glyph glyph-name="lvyoudujia" unicode="&#58901;" d="M512-128C229.239467-128 0 101.239467 0 384S229.239467 896 512 896 1024 666.760533 1024 384 794.760533-128 512-128z m326.633244 593.806222a279.7568 279.7568 0 0 1-70.4512 58.117689 316.165689 316.165689 0 0 1-105.745066 38.752711 316.643556 316.643556 0 0 1-25.1904 3.504356c-51.495822 5.188267-101.057422-1.706667-144.952889-18.045156 18.204444 16.839111 38.229333 36.568178 58.254222 58.618311 46.648889 51.382044 76.572444 96.938667 89.861689 118.784 3.868444 6.371556-4.391822 11.537067-14.381511 9.102223a399.815111 399.815111 0 0 1-80.941511-28.580978c-27.898311-13.425778-52.724622-29.969067-73.341156-49.379556-4.414578-4.096-8.6016-8.374044-12.629333-12.788622-25.349689-27.8528-40.300089-58.686578-45.169778-90.089244-15.701333 19.956622-38.070044 33.314133-66.104889 38.320355a135.327289 135.327289 0 0 1-11.946666 1.615645c-19.000889 1.797689-39.594667 0.068267-61.166934-4.801423-19.387733-4.323556-39.981511-11.309511-61.280711-20.844089-7.441067-3.345067-11.286756-10.467556-6.599111-12.447288 16.224711-6.894933 51.768889-20.2752 100.352-28.945067 17.021156-3.049244 33.405156-5.097244 48.423822-6.485333-25.258667-9.0112-48.765156-25.372444-68.289422-49.652623-4.255289-5.279289-8.192-10.717867-11.741867-16.429511-16.930133-26.760533-26.692267-57.503289-29.582222-89.656889a232.083911 232.083911 0 0 1 6.735645-80.873244c2.2528-8.624356 13.425778-12.743111 19.615288-7.395556a739.623822 739.623822 0 0 1 100.625067 105.949867 741.330489 741.330489 0 0 1 54.272 81.191822 392.6016 392.6016 0 0 0 38.866489-37.796978 374.146844 374.146844 0 0 0 96.301511-229.649066h-2.116267c-101.262222 0-191.396978-42.825956-248.900266-119.102578h497.914311c-27.215644 38.525156-61.44 62.737067-100.898133 83.035022-5.233778 2.730667-10.490311 5.302044-15.837867 7.736889-3.185778 81.601422-31.789511 158.3104-82.102045 220.933689a442.322489 442.322489 0 0 1-77.915022 76.322133c27.921067-4.755911 59.141689-9.216 92.501334-12.583822 90.112-9.079467 166.684444-7.145244 203.639466-5.233778 10.831644 0.546133 16.497778 11.241244 9.921422 18.796089z"  horiz-adv-x="1024" />
      
      <glyph glyph-name="zy_xinyongka" unicode="&#58880;" d="M938.11 525.142L653.122 810.125c-15.384 15.383-35.9 23.856-57.77 23.856-21.869 0-42.386-8.47-57.77-23.852L85.854 358.4C70.473 343.01700000000005 62 322.50300000000004 62 300.63199999999995c0-21.87 8.473-42.388 23.855-57.769l35.142-35.142 0.01-0.008 0.01-0.011 236.18-236.18h-32.703c-10.353 0-18.749-8.393-18.749-18.749 0-10.353 8.396-18.748 18.75-18.748h104.042l0.072-0.002 0.072 0.002 270.797-0.004c10.353 0 18.749 8.395 18.749 18.749 0 10.355-8.396 18.749-18.75 18.749l-199.448 0.003 438.082 438.082c31.852 31.855 31.852 83.686-0.001 115.538z m-26.515-89.023l-451.73-451.73c-8.285-8.282-19.359-12.85-31.187-12.867h-0.142c-11.825 0.02-22.896 4.585-31.177 12.867L160.78 220.97000000000003 594.6 654.794c7.32 7.321 7.32 19.193 0 26.515-7.323 7.32-19.192 7.32-26.517-0.002l-433.82-433.823-21.895 21.895C104.07 277.677 99.5 288.77599999999995 99.5 300.63s4.57 22.956 12.871 31.256l451.726 451.726c8.3 8.299 19.401 12.87 31.256 12.87s22.955-4.571 31.256-12.871l101.43-101.43-433.824-433.828c-7.321-7.32-7.321-19.192 0-26.516a18.696 18.696 0 0 1 13.257-5.49c4.798 0 9.596 1.832 13.258 5.491l433.825 433.827 157.04-157.036c17.233-17.234 17.23-45.276 0-62.51zM523.955 292.481c-7.321 7.322-19.19 7.32-26.517 0l-147.54-147.538c-7.321-7.322-7.321-19.192 0-26.517a18.69 18.69 0 0 1 13.257-5.491c4.798 0 9.596 1.831 13.258 5.491l147.54 147.539c7.323 7.324 7.323 19.195 0.002 26.516zM463.44 152.42399999999998l-60.512-60.513c-7.322-7.321-7.322-19.193 0-26.516a18.698 18.698 0 0 1 13.257-5.492c4.8 0 9.596 1.832 13.258 5.492l60.512 60.512c7.322 7.322 7.322 19.194 0 26.517s-19.188 7.323-26.515 0z m55.686 55.68l-7.954-7.952c-7.323-7.321-7.323-19.192-0.002-26.516a18.69 18.69 0 0 1 13.258-5.494 18.686 18.686 0 0 1 13.255 5.494l7.955 7.952c7.323 7.321 7.323 19.192 0.001 26.515-7.318 7.321-19.192 7.323-26.513 0.001z m258.432 337.979a18.749 18.749 0 0 1-26.515 0l-79.55-79.548a18.752 18.752 0 0 1 0-26.515l53.034-53.028a18.69 18.69 0 0 1 13.257-5.492c4.8 0 9.596 1.832 13.257 5.492l79.547 79.544c7.321 7.322 7.321 19.194 0 26.515l-53.03 53.032z m-39.776-119.32l-26.516 26.514 53.033 53.032 26.515-26.517-53.032-53.03zM625.096 693.047c4.8 0 9.6 1.832 13.26 5.495l7.953 7.958c7.32 7.323 7.318 19.195-0.005 26.514-7.321 7.32-19.195 7.318-26.515-0.005l-7.954-7.957c-7.32-7.324-7.318-19.196 0.005-26.515a18.682 18.682 0 0 1 13.256-5.49zM250.464 204.60299999999995l-7.954-7.954c-7.322-7.32-7.322-19.192 0-26.517 3.661-3.66 8.46-5.49 13.257-5.49s9.596 1.83 13.258 5.49l7.954 7.954c7.321 7.323 7.321 19.196 0 26.517-7.323 7.323-19.192 7.323-26.515 0z"  horiz-adv-x="1024" />
      
      <glyph glyph-name="riqi" unicode="&#58885;" d="M493.76375 147.29625L393.156875 247.9040625c-10.98375 10.98375-10.9828125 28.7915625 0 39.774375 10.98375 10.98375 28.7915625 10.98375 39.774375 0l62.0325-62.0334375 144.5634375 144.5615625c10.98375 10.9846875 28.790625 10.98375 39.774375 0s10.98375-28.7915625 0-39.774375l-164.353125-164.353125-21.1846875-18.7828125zM824.9440625 610.569375H709.9840625v40.5196875c0 12.9440625-10.4925 23.4375-23.4375 23.4375s-23.4375-10.4934375-23.4375-23.4375v-40.5196875H409.35125v40.5196875c0 12.9440625-10.4934375 23.4375-23.4375 23.4375s-23.4375-10.4934375-23.4375-23.4375v-40.5196875H247.51625c-12.9440625 0-23.4375-10.4934375-23.4375-23.4375v-489.553125c0-12.945 10.4934375-23.4375 23.4375-23.4375h577.4278125c12.945 0 23.4375 10.4925 23.4375 23.4375v489.553125c0 12.9440625-10.4934375 23.4375-23.4375 23.4375z m-456.9103125-46.875c4.299375-5.07 10.711875-8.2921875 17.88-8.2921875s13.580625 3.2221875 17.88 8.2921875h264.871875c4.299375-5.07 10.711875-8.2921875 17.88-8.2921875s13.580625 3.2221875 17.88 8.2921875h97.08v-77.1075H270.95375v77.1075h97.08zM270.95375 121.01531250000005V439.711875h530.5528125v-318.695625H270.95375z"  horiz-adv-x="1024" />
      
      <glyph glyph-name="weizhi" unicode="&#59360;" d="M512 872.727273C332.055273 872.727273 186.181818 726.853818 186.181818 546.909091c0-143.150545 206.242909-420.608 290.536727-518.539636a46.429091 46.429091 0 0 1 70.56291 0C631.575273 126.301091 837.818182 403.758545 837.818182 546.909091c0 179.944727-145.873455 325.818182-325.818182 325.818182m0-69.818182c141.149091 0 256-114.850909 256-256 0-96.139636-143.313455-316.066909-256-452.096C399.313455 230.842182 256 450.769455 256 546.909091c0 141.149091 114.850909 256 256 256m0-93.090909a139.636364 139.636364 0 0 0 0-279.272727 139.636364 139.636364 0 0 0 0 279.272727z m0-69.818182c-38.493091 0-69.818182-31.325091-69.818182-69.818182s31.325091-69.818182 69.818182-69.818182 69.818182 31.325091 69.818182 69.818182-31.325091 69.818182-69.818182 69.818182z m0-733.090909c-151.319273 0-314.181818 40.052364-314.181818 128 0 22.900364 11.659636 55.947636 67.165091 83.339636 7.191273 3.560727 15.034182 6.981818 23.505454 10.24a34.909091 34.909091 0 0 0 25.181091-65.117091 213.783273 213.783273 0 0 1-17.757091-7.703272c-21.015273-10.379636-27.671273-19.176727-28.346182-21.410909 4.840727-14.894545 87.365818-57.530182 244.433455-57.530182 157.067636 0 239.592727 42.635636 244.433455 58.833454-0.954182 1.931636-11.147636 14.08-44.125091 27.042909a34.885818 34.885818 0 1 0 25.553454 64.954182C810.868364 98.885818 826.181818 61.346909 826.181818 34.909091c0-87.947636-162.862545-128-314.181818-128z"  horiz-adv-x="1024" />
      
      <glyph glyph-name="wode" unicode="&#58914;" d="M513.202 893.899C231.01 893.899 2.253 665.142 2.253 382.949S231.01-128 513.202-128s510.949 228.757 510.949 510.949S795.395 893.899 513.202 893.899z m0-69.675c243.726 0 441.274-197.548 441.274-441.274 0-86.595-25.312-167.156-68.428-235.312-72.735 77.772-169.128 133.203-278.132 153.638 67.815 34.543 114.311 104.853 114.311 186.163 0 115.444-93.58 209.024-209.024 209.024s-209.025-93.58-209.025-209.024c0-81.311 46.541-151.62 114.31-186.163-108.958-20.436-205.35-75.866-278.109-153.639-43.116 68.155-68.45 148.717-68.45 235.312-0.001 243.726 197.592 441.275 441.273 441.275z m0-487.747c-83.374 0-150.963 67.589-150.963 150.963s67.589 150.962 150.963 150.962 150.962-67.588 150.962-150.962c0-83.375-67.588-150.963-150.962-150.963z m0-394.802c-131.593 0-249.419 57.949-330.275 149.329 80.789 91.539 198.637 149.511 330.275 149.511 131.684 0 249.532-57.972 330.298-149.487-80.856-91.404-198.659-149.353-330.298-149.353z"  horiz-adv-x="1024" />
      
      <glyph glyph-name="kefu" unicode="&#60462;" d="M927.616 430.4C923.328 659.296 745.888 844.192 528 844.192h-32c-217.888 0-395.328-184.896-399.616-413.76C58.112 408.256 32 367.328 32 320v-64c0-70.592 57.408-128 128-128s128 57.408 128 128v64a128.064 128.064 0 0 1-126.784 127.872C173.728 633.312 318.912 780.192 496 780.192h32c177.12 0 322.272-146.88 334.784-332.32A128.064 128.064 0 0 1 736 320v-64c0-57.792 38.72-106.176 91.392-122.016a337.504 337.504 0 0 0-191.936-124.48A79.712 79.712 0 0 1 560 64a80 80 0 1 1 0-160 79.68 79.68 0 0 1 67.872 38.112 402.432 402.432 0 0 1 278.24 193.6C955.968 153.184 992 200.224 992 256v64c0 47.328-26.112 88.256-64.384 110.4zM224 320v-64c0-35.296-28.704-64-64-64s-64 28.704-64 64v64c0 35.296 28.704 64 64 64s64-28.704 64-64z m704-64c0-34.304-27.2-62.176-61.12-63.712l-2.496 1.184c-0.224-0.512-0.576-0.928-0.8-1.408A64 64 0 0 0 800 256v64c0 35.296 28.704 64 64 64s64-28.704 64-64v-64z"  horiz-adv-x="1024" />
      
      <glyph glyph-name="gangaoziyouhang" unicode="&#59164;" d="M874.201084 400.630326c-46.894626-55.420921-153.473321-44.763052-191.84165-2.131574-59.684069 66.078791-153.473321 57.552495-191.841651-10.657869 10.657869 36.236756 38.36833 70.341939 74.605086 93.789251 49.0262 31.973608 108.710269 42.631478 166.262764 27.710461l2.131574 8.526296c-57.552495 14.921017-121.499712 4.263148-170.525912-29.842035-36.236756-23.447313-61.815643-55.420921-74.605086-89.526104 51.157774 311.209789 464.683109 298.420346 535.025048 12.789444-49.0262 49.0262-106.578695 40.499904-149.210173-10.65787z m-61.815643 123.631286l-31.973608-12.789443-23.447313 23.447313 2.131574-31.973609-29.842035-17.052591 31.973609-8.526295 6.394721-31.973609 17.052592 27.710461 31.973608-4.263148-21.315739 25.578887 17.052591 29.842034z m-409.262188-40.499904c-14.921017 55.420921-6.394722 117.236564 23.447313 164.13119l-6.394722 4.263148c-31.973608-51.157774-40.499904-112.973417-25.578886-170.525912 10.657869-40.499904 34.105182-76.73666 63.947216-98.052399-283.499328 144.947025-142.815451 532.893474 151.341747 511.577735-61.815643-31.973608-70.341939-89.526104-36.236756-144.947025 38.36833-61.815643-4.263148-157.736468-57.552495-183.315355-80.999808-36.236756-102.315547-127.894434-49.0262-183.315355-27.710461 21.315739-53.289347 57.552495-63.947217 100.183973z m38.36833 187.578503L447.886305 639.366603l17.052591 27.71046 31.973609-4.263147-21.315739 25.578886 14.921017 29.842035-29.842035-12.789443-23.447313 23.447312 2.131574-31.973608-29.842034-17.052591 31.973608-8.526296z m-89.526103-343.183397c-57.552495 2.131574-112.973417 29.842035-149.210173 74.605086l-6.394722-4.263148c38.36833-46.894626 95.920825-74.605086 155.604895-76.73666 42.631478-2.131574 80.999808 8.526296 112.973416 27.710461C238.992063 125.657294-87.138743 379.314587 21.571526 652.156046c10.657869-68.210365 63.947217-93.789251 127.894433-78.868234 70.341939 19.184165 151.341747-53.289347 155.604895-110.841843 8.526296-87.39453 91.657678-136.420729 161.999616-102.315547-29.842035-21.315739-72.473512-34.105182-115.10499-31.973608z m-142.815451 147.078599l-31.973609-12.789444-23.447313 23.447313 2.131574-31.973608-29.842034-17.052591 31.973608-8.526296 6.394722-31.973608 17.052591 27.71046 31.973608-4.263148-21.315739 25.578887 17.052592 29.842035z m272.841458-242.999424c-21.315739-55.420921-63.947217-98.052399-117.236564-119.368139l2.131574-6.394721c55.420921 21.315739 100.183973 68.210365 121.499712 123.631286 14.921017 40.499904 17.052591 80.999808 8.526296 115.10499C639.727956 61.710077 298.676132-168.499904 72.729299 21.210173c68.210365-10.657869 110.841843 31.973608 112.973417 95.920825 4.263148 72.473512 95.920825 125.76286 153.47332 115.104991 87.39453-17.052591 157.736468 44.763052 149.210173 121.499712 10.657869-38.36833 10.657869-80.999808-6.394722-121.499712z m-127.894433-100.183974l-31.973609-12.789443-23.447313 23.447313 2.131574-31.973609-29.842034-17.052591 31.973608-8.526295 6.394722-31.973609 17.052591 27.710461 34.105182-4.263148-21.315739 25.578887 14.921018 29.842034z m338.920249 46.894626h8.526296c-4.263148 59.684069-34.105182 115.10499-80.999808 153.473321-34.105182 25.578887-70.341939 40.499904-108.710269 42.631478 313.341363 49.0262 428.446353-347.446545 179.052207-503.05144 31.973608 61.815643 4.263148 112.973417-57.552495 136.420729-68.210365 25.578887-91.657678 130.026008-61.815643 181.183782 44.763052 76.73666 6.394722 161.999616-70.341939 176.920633 38.36833 0 78.868234-14.921017 112.973417-40.499904 46.894626-36.236756 74.605086-89.526104 78.868234-147.078599z m-17.052591-63.947217l6.394722-31.973608 17.052591 27.71046 31.973608-4.263147-21.315739 25.578886 14.921018 29.842035-29.842035-12.789443-23.447313 23.447312 2.131574-31.973608-29.842035-17.052591 31.973609-8.526296z m-183.315355 272.841459"  horiz-adv-x="1024" />
      
      <glyph glyph-name="dianzan" unicode="&#60543;" d="M857.28 551.008h-264.832c12.576 44.256 18.944 83.584 18.944 118.208 0 78.56-71.808 153.792-140.544 143.808-60.608-8.8-89.536-59.904-89.536-125.536v-59.296c0-76.064-58.208-140.928-132.224-148.064l-117.728 0.192A67.36 67.36 0 0 1 64 412.96V24c0-37.216 30.144-67.36 67.36-67.36h652.192a102.72 102.72 0 0 1 100.928 83.584l73.728 388.96a102.72 102.72 0 0 1-100.928 121.824zM128 24V412.96c0 1.856 1.504 3.36 3.36 3.36H208v-395.68H131.36A3.36 3.36 0 0 0 128 24z m767.328 417.088l-73.728-388.96a38.72 38.72 0 0 0-38.048-31.488H272V419.136a213.312 213.312 0 0 1 173.312 209.088V687.488c0 37.568 12.064 58.912 34.72 62.176 27.04 3.936 67.36-38.336 67.36-80.48 0-37.312-9.504-84-28.864-139.712a32 32 0 0 1 30.24-42.496h308.512a38.72 38.72 0 0 0 38.048-45.888z"  horiz-adv-x="1024" />
      
      <glyph glyph-name="bojinxinyongqia" unicode="&#58886;" d="M229.517241 294.664828h176.551725v-88.275862H229.517241zM35.310345 789.186207v-776.827586h600.275862v88.275862H123.586207v388.413793h776.827586v-44.137931l88.275862-35.310345V789.186207H35.310345z m88.275862-212.038621v123.586207h776.827586v-123.586207H123.586207zM730.217931 391.062069c25.423448 4.413793 61.44 7.944828 98.868966 7.944828 48.375172 0 146.184828-6.002759 146.184827-108.755863 0-46.962759-30.013793-81.390345-65.853793-95.337931v-1.588965c27.012414-10.416552 41.842759-36.369655 50.846897-75.387586 10.946207-45.373793 21.009655-91.277241 28.424827-105.754483h-75.917241c-5.473103 10.946207-15.006897 44.491034-24.011035 90.747586-10.063448 49.434483-25.423448 64.794483-60.380689 64.794483h-24.893793v-155.718621h-73.445518V391.062069z m73.445517-168.253793h30.366897c41.842759 0 67.442759 24.54069 67.442758 60.910345 0 49.434483-36.89931 58.791724-63.911724 58.791724-16.41931 0-27.895172-1.05931-33.897931-3.001379v-116.70069z"  horiz-adv-x="1024" />
      
      <glyph glyph-name="jieqian" unicode="&#58897;" d="M995.575172 170.548966c-12.358621 26.835862-38.488276 64.794483-92.689655 94.27862-62.146207 33.721379-136.297931 40.96-208.860689 20.303448l-99.928276-28.424827-279.304828 126.057931H22.775172v-489.401379h509.704828l432.375172 195.266207c15.006897 6.708966 26.835862 19.42069 32.662069 34.957241 5.649655 15.36 4.943448 31.955862-1.942069 46.962759z m-482.162758-188.910345H111.051034V294.311724h184.673104l166.664828-75.387586-3.354483-0.882759h-170.372414v-88.275862H471.393103l246.819311 70.267586c49.434483 14.124138 101.517241 9.357241 142.653793-12.888275 18.184828-9.886897 30.72-20.833103 39.371034-30.896552l-386.824827-174.609655zM695.437241 732.513103l58.615173 142.30069h-397.24138l66.736552-143.36c-121.82069-53.142069-207.095172-174.433103-207.095172-315.674483 0-28.601379 3.531034-57.202759 10.593103-84.744827l85.627586 21.715862c-5.12 20.48-7.768276 41.666207-7.768275 63.028965 0 141.241379 114.758621 256 256 256s256-114.758621 256-256c0-51.023448-14.830345-100.104828-43.078621-142.300689l73.268965-49.08138c37.958621 56.673103 58.085517 122.88 58.085518 191.382069-0.176552 141.947586-86.686897 264.121379-209.743449 316.733793zM467.508966 804.016552h180.965517l-21.009655-50.846897a348.16 348.16 0 0 1-66.913104 6.708966c-23.834483 0-46.962759-2.471724-69.384827-7.062069l-23.657931 51.2zM683.431724 468.568276v70.62069h-38.311724l30.190345 30.190344-49.964138 49.964138-62.49931-62.49931h-6.002759L494.344828 619.343448l-49.787587-49.964138 30.013793-30.190344h-38.311724v-70.62069h88.275862v-35.310345h-88.275862v-70.62069h88.275862v-52.965517h70.62069v52.965517h88.275862v70.62069h-88.275862v35.310345z"  horiz-adv-x="1024" />
      
      <glyph glyph-name="shaixuan" unicode="&#59194;" d="M71.754 778.008A32 32 0 0 0 63 800c0 17.673 14.327 32 32 32h833.35a32 32 0 0 0 21.992-8.754c12.839-12.146 13.4-32.4 1.255-45.238l-271.801-289.31C667 475 651 463.492 651 444v-326c0-17.673-14.327-32-32-32-17.673 0-32 14.327-32 32V473.266a32 32 0 0 0 8.749 21.986l245.135 259.246A8 8 0 0 1 835.076 768H188.274a8 8 0 0 1-5.807-13.502l245.756-259.24A32 32 0 0 0 437 473.243V-32c0-17.673-14.327-32-32-32-17.673 0-32 14.327-32 32V440.5c0 20.5-13 31.5-26.796 45.199l-274.45 292.31z"  horiz-adv-x="1024" />
      
      <glyph glyph-name="jiudian1" unicode="&#58924;" d="M534.1 384m-450 0a450 450 0 1 1 900 0 450 450 0 1 1-900 0ZM604.4 447.5c-10.8 0-19.5 8.7-19.5 19.5v56.6c0 28.1-22.8 50.9-50.7 50.9H407.1c-28 0-50.7-22.5-50.7-50.8V213c0-10.8 8.7-19.5 19.5-19.5h316.6c10.8 0 19.5 8.7 19.5 19.5V400.2c0 26.1-21.2 47.3-47.3 47.3h-60.3z m-121-152.4H458c-14 0-25.4 11.2-25.4 25.4 0 14 11.2 25.4 25.4 25.4h25.4c14 0 25.4-11.2 25.4-25.4-0.1-14-11.3-25.4-25.4-25.4z m0 127H458c-14 0-25.4 11.3-25.4 25.4 0 14 11.2 25.4 25.4 25.4h25.4c14 0 25.4-11.3 25.4-25.4-0.1-14-11.3-25.4-25.4-25.4z m152.3-127c-14 0-25.4 11.2-25.4 25.4 0 14 11.2 25.4 25.4 25.4 14 0 25.4-11.2 25.4-25.4 0-14-11.3-25.4-25.4-25.4z m0 0"  horiz-adv-x="1024" />
      
      <glyph glyph-name="jiudian2" unicode="&#58915;" d="M477.866667 351.402667a382.72 382.72 0 0 0-135.850667 38.1952l-55.6544-12.970667a246.1696 246.1696 0 0 0-169.557333 21.4016c-44.373333 23.125333-61.44 77.499733-38.058667 121.4464 0.785067 1.4848 1.621333 2.952533 2.491733 4.4032C190.242133 703.6928 333.824 793.6 512 793.6c178.176 0 321.757867-89.9072 430.762667-269.7216 25.821867-42.581333 11.8784-97.826133-31.112534-123.392-1.450667-0.853333-2.935467-1.6896-4.437333-2.4576a246.1696 246.1696 0 0 0-169.557333-21.4016l-55.671467 12.970667A382.72 382.72 0 0 0 546.133333 351.402667V25.6h34.133334v34.133333a17.066667 17.066667 0 0 0-17.066667 17.066667v34.133333a17.066667 17.066667 0 0 0 17.066667 17.066667h9.096533l21.0944 158.1056A34.133333 34.133333 0 0 0 644.266667 315.733333h247.432533a34.133333 34.133333 0 0 0 33.826133-29.627733L946.6368 128H955.733333a17.066667 17.066667 0 0 0 17.066667-17.066667v-34.133333a17.066667 17.066667 0 0 0-17.066667-17.066667v-34.133333h17.066667a34.133333 34.133333 0 1 0 0-68.266667H51.2a34.133333 34.133333 0 1 0 0 68.266667h17.066667v34.133333a17.066667 17.066667 0 0 0-17.066667 17.066667v34.133333a17.066667 17.066667 0 0 0 17.066667 17.066667h9.096533l21.0944 158.1056A34.133333 34.133333 0 0 0 132.266667 315.733333h247.432533a34.133333 34.133333 0 0 0 33.826133-29.627733L434.6368 128H443.733333a17.066667 17.066667 0 0 0 17.066667-17.066667v-34.133333a17.066667 17.066667 0 0 0-17.066667-17.066667v-34.133333h34.133334V351.402667zM648.533333 25.6h238.933334v34.133333H648.533333v-34.133333z m-273.066666 0v34.133333H136.533333v-34.133333h238.933334zM148.514133 145.066667l-2.269866-17.066667H365.738667l-2.269867 17.066667H148.514133z m9.096534 68.266666h196.778666l-4.5568 34.133334H162.167467l-4.5568-34.133334z m502.903466-68.266666l-2.269866-17.066667H877.738667l-2.269867 17.066667H660.514133z m9.096534 68.266666h196.778666l-4.5568 34.133334H674.167467l-4.5568-34.133334zM512 725.333333c-153.002667 0-275.182933-76.509867-372.394667-236.8512l-0.580266-1.041066c-5.5296-10.3936-1.501867-23.2448 9.3184-28.8768a177.902933 177.902933 0 0 1 122.5216-15.445334l79.5136 18.5344 21.930666-10.871466a315.153067 315.153067 0 0 1 279.381334 0l21.947733 10.871466 79.496533-18.5344a177.902933 177.902933 0 0 1 123.630934 16.059734 21.162667 21.162667 0 0 1 7.6288 29.303466C787.2 648.823467 665.002667 725.333333 512 725.333333zM526.882133 699.5456l100.4544-182.203733c8.942933-16.213333 2.8672-36.488533-13.568-45.312a34.167467 34.167467 0 0 0-6.877866-2.7648l-27.118934-7.645867a250.0608 250.0608 0 0 0-135.543466 0l-27.101867 7.645867a33.348267 33.348267 0 0 0-20.48 48.0768l100.471467 182.203733a17.066667 17.066667 0 0 0 29.764266 0z"  horiz-adv-x="1024" />
      
      <glyph glyph-name="zhongcao" unicode="&#58957;" d="M567.351351 93.405405a41.513514 41.513514 0 0 0 41.513514-41.513513v-138.378378a41.513514 41.513514 0 0 0-83.027027 0v138.378378a41.513514 41.513514 0 0 0 41.513513 41.513513z m242.466595 744.475676C896.138378 877.180541 985.586162 887.005405 1062.828973 880.612324c4.262054-0.332108 8.081297-0.719568 11.402378-1.107027l4.732541-0.608865a41.513514 41.513514 0 0 0 34.926703-34.816l1.743567-13.616432c0.608865-5.203027 1.190054-10.931892 1.743568-17.158919l0.968648-11.983567c1.522162-20.28627 2.435459-42.233081 2.490811-65.480649 0.276757-79.982703-9.132973-159.273514-31.744-232.752433-66.255568-215.261405-230.787459-335.872-508.955675-309.137297a41.458162 41.458162 0 0 0-12.813838 3.321081 41.236757 41.236757 0 0 0-12.758487-3.321081c-278.195892-26.734703-442.727784 93.875892-508.983351 309.137297C22.970811 576.567351 13.561081 655.858162 13.810162 735.840865c0.083027 23.247568 0.996324 45.194378 2.490811 65.480649l0.996324 11.955891c0.553514 6.254703 1.134703 11.983568 1.743568 17.186595l1.743567 13.616432A41.513514 41.513514 0 0 0 55.711135 878.841081l4.760216 0.608865c3.321081 0.387459 7.112649 0.774919 11.374703 1.107027C149.088865 886.950054 238.564324 877.180541 324.857081 837.908757c117.427892-53.469405 201.728-150.500324 242.49427-296.240433 40.738595 145.740108 125.038703 242.771027 242.466595 296.240433z m225.196973-36.587243l0.19373-2.214054-10.516757 0.221405c-56.928865 0.636541-120.333838-9.603459-180.445406-36.974703-146.376649-66.615351-230.815135-216.866595-220.851891-484.573405l0.166054-3.763892 8.413405-0.359784c205.990054-7.389405 322.200216 83.082378 375.088432 245.400217l2.684541 8.468756c19.871135 64.539676 28.339892 135.776865 28.090811 208.038054a829.44 829.44 0 0 1-3.155027 70.351568l0.332108-4.594162z m-935.382487 0l0.359784 4.594162A829.44 829.44 0 0 1 96.864865 735.536432c-0.249081-72.233514 8.219676-143.498378 28.090811-208.038054l2.68454-8.468756c52.915892-162.317838 169.098378-252.789622 375.088433-245.400217l8.413405 0.359784 0.166054 3.763892c9.963243 267.706811-74.475243 417.958054-220.824216 484.601081-60.139243 27.343568-123.544216 37.583568-180.500757 36.947027l-10.489081-0.221405 0.166054 2.214054z"  horiz-adv-x="1134" />
      
      <glyph glyph-name="pinzhibaozhang" unicode="&#58964;" d="M911.810834 291.563844c-12.404856 82.233422-18.438758 163.313228-18.358839 244.483377 0.074707 78.331279 5.851478 156.424537 17.090555 235.409069C846.756573 804.793037 781.146353 828.791395 716.024334 844.91597 641.510068 863.36689 567.581297 871.482167 497.698872 871.482167c-68.01301 0-139.28881-8.004086-212.461823-25.904257-65.438221-16.008171-132.474826-39.917923-200.155997-73.067034 10.531966-77.745783 15.690232-155.51589 15.690231-233.09141 0-81.632291-5.7177-163.342763-16.890757-244.863862-1.17794-8.60348-1.749536-17.085343-1.749537-25.428217-0.001737-95.559087 72.650063-184.408432 159.041024-251.387705 87.316981-67.696808 187.923142-112.673966 242.825921-120.198536 4.941094-0.675839 9.578147-1.023314 13.84514-1.023313 4.312164 0 9.114268 0.389172 14.340291 1.148404 54.802012 7.971075 155.328254 53.794335 242.572265 121.484194 86.269344 66.932363 158.841225 154.859162 158.841225 247.388267 0 8.389783-0.582021 16.739606-1.786021 25.025146z m6.061701 244.483377c-0.078182-79.603037 5.893175-159.475367 18.160778-240.845314v-0.095556c1.402061-9.656329 2.081375-19.182355 2.081375-28.567653 0-101.405353-76.948328-195.763914-168.42111-266.732198-90.496377-70.212526-195.953288-117.917363-254.063261-126.369691-6.537741-0.948607-12.493462-1.436809-17.787243-1.436809-5.038387 0-10.766511 0.444768-17.10098 1.311718-58.266338 7.984974-163.891774 54.82981-254.508029 125.084034-91.540539 70.971759-168.52709 166.226805-168.523615 270.731635 0.001737 9.56946 0.634142 19.140658 1.940647 28.684057 10.981946 80.127724 16.602353 160.748863 16.602354 241.608022 0 79.611724-5.453619 159.178276-16.602354 238.445999l-1.216162 8.655602 7.872045 3.938628c72.101053 36.052264 143.528004 61.829693 213.182833 78.868128 75.341257 18.430072 148.529906 26.672177 218.209059 26.672177 71.605901 0 147.497905-8.349823 224.166516-27.334117C791.389914 851.451974 861.527734 825.45911 929.636299 788.982927l7.614914-4.079356-1.245698-8.466228c-11.92534-81.043321-18.056536-160.766237-18.13298-240.390122zM856.855933 307.651935c-20.784214 137.846789-20.228254 271.198989-0.024323 408.482868-118.88508 63.669573-245.367701 88.913628-359.082354 88.913628-111.756632 0-234.090401-25.400419-358.85997-87.791284 19.092011-135.749777 18.529102-272.057252 0-407.245857-25.621066-186.931101 272.825172-347.056246 358.983323-347.059721 85.301626 0 385.328875 163.566885 358.983324 344.700366zM409.033688 625.563719c-5.556125-18.304981-11.440613-35.875052-17.651728-52.710213-6.211115-16.833424-12.912169-33.260303-20.103163-49.277161v-326.556961h-46.090815V435.807647c-5.556125-8.825864-11.195643-17.406758-16.915081-25.742682-5.721175-8.334187-11.68732-16.751767-17.896697-25.251005l-33.343697 40.206327c8.172611 11.768977 17.243445 25.987652 27.214238 42.6595 9.969056 16.670111 19.776537 34.566808 29.418967 53.690092 9.64243 19.123284 18.54995 38.73477 26.722562 58.839671 8.172611 20.103163 14.710352 39.306367 19.613223 57.613085l49.032191-12.258916z m261.344599-169.162969H425.215597v163.27848h245.16269v-163.27848z m-48.542251 117.679342H474.247787v-72.078467h147.588249v72.078467z m-38.246568-205.936243c16.345222-20.59484 35.630082-39.308104 57.858054-56.143265 22.22971-16.835161 47.725685-32.60705 76.491399-47.315665l-25.495974-46.090815c-23.209589 15.363605-45.437562 32.278686-66.685656 50.748717-21.246356 18.468294-40.206327 38.489801-56.876438 60.06452v-130.9164H522.790038V327.935785c-7.519358-10.78736-15.363605-21.001386-23.536216-30.645553-8.172611-9.64243-17.243445-19.03989-27.212501-28.192381-9.970794-9.15249-20.83981-18.225061-32.607049-27.214238-11.767239-8.989177-24.842722-18.060011-39.226448-27.212501l-27.457471 44.129319c16.343484 8.499237 31.053837 16.916818 44.129319 25.251005 13.075482 8.335924 24.924378 16.916818 35.548425 25.742682 10.624047 8.825864 20.266477 17.978354 28.929028 27.459208 8.662551 9.479117 16.753505 19.7748 24.271125 30.890523h-106.890245v43.147703h124.052033V447.084946l46.090815-1.961496v-33.831898h128.954905v-43.147703h-114.24629z"  horiz-adv-x="1024" />
      
      <glyph glyph-name="tuihuobaozhang" unicode="&#59035;" d="M911.810834 291.563844c-12.404856 82.233422-18.438758 163.313228-18.358839 244.483377 0.074707 78.331279 5.851478 156.424537 17.090555 235.409069C846.756573 804.793037 781.146353 828.791395 716.024334 844.91597 641.510068 863.36689 567.581297 871.482167 497.698872 871.482167c-68.01301 0-139.28881-8.004086-212.461823-25.904257-65.438221-16.008171-132.474826-39.917923-200.155997-73.067034 10.531966-77.745783 15.690232-155.51589 15.690231-233.09141 0-81.632291-5.7177-163.342763-16.890757-244.863862-1.17794-8.60348-1.749536-17.085343-1.749537-25.428217-0.001737-95.559087 72.650063-184.408432 159.041024-251.387705 87.316981-67.696808 187.923142-112.673966 242.825921-120.198536 4.941094-0.675839 9.578147-1.023314 13.84514-1.023313 4.312164 0 9.114268 0.389172 14.340291 1.148404 54.802012 7.971075 155.328254 53.794335 242.572265 121.484194 86.269344 66.932363 158.841225 154.859162 158.841225 247.388267 0 8.389783-0.582021 16.739606-1.786021 25.025146z m6.061701 244.483377c-0.078182-79.603037 5.893175-159.475367 18.160778-240.845314v-0.095556c1.402061-9.656329 2.081375-19.182355 2.081375-28.567653 0-101.405353-76.948328-195.763914-168.42111-266.732198-90.496377-70.212526-195.953288-117.917363-254.063261-126.369691-6.537741-0.948607-12.493462-1.436809-17.787243-1.436809-5.038387 0-10.766511 0.444768-17.10098 1.311718-58.266338 7.984974-163.891774 54.82981-254.508029 125.084034-91.540539 70.971759-168.52709 166.226805-168.523615 270.731635 0.001737 9.56946 0.634142 19.140658 1.940647 28.684057 10.981946 80.127724 16.602353 160.748863 16.602354 241.608022 0 79.611724-5.453619 159.178276-16.602354 238.445999l-1.216162 8.655602 7.872045 3.938628c72.101053 36.052264 143.528004 61.829693 213.182833 78.868128 75.341257 18.430072 148.529906 26.672177 218.209059 26.672177 71.605901 0 147.497905-8.349823 224.166516-27.334117C791.389914 851.451974 861.527734 825.45911 929.636299 788.982927l7.614914-4.079356-1.245698-8.466228c-11.92534-81.043321-18.056536-160.766237-18.13298-240.390122zM856.855933 307.651935c-20.784214 137.846789-20.228254 271.198989-0.024323 408.482868-118.88508 63.669573-245.367701 88.913628-359.082354 88.913628-111.756632 0-234.090401-25.400419-358.85997-87.791284 19.092011-135.749777 18.529102-272.057252 0-407.245857-25.621066-186.931101 272.825172-347.056246 358.983323-347.059721 85.301626 0 385.328875 163.566885 358.983324 344.700366zM364.112126 544.6176909999999c-2.658183 5.057498-5.943559 10.879441-9.84744 17.465829-4.941094 8.334187-10.205339 16.753505-15.789262 25.252742-5.587397 8.499237-11.350269 16.751767-17.288616 24.761065-4.756932 6.414388-9.089945 11.939239-12.999038 16.569343l0.601131 5.941822 29.971452 23.131407 6.273661-0.635879c3.589416-4.240932 7.548893-9.19245 11.869744-14.851079 5.491842-7.190994 11.126148-14.792009 16.902919-22.801307 5.775034-8.00756 11.305098-16.016858 16.591929-24.024418 4.303477-6.522105 8.144813-12.556007 11.525744-18.09997l-1.045899-6.556853-31.491655-27.177753-5.27467 1.025051z m120.283667-263.245287c36.559577-0.979879 72.997538-1.143193 109.317358-0.48994 34.886485 0.627192 69.950183 1.709577 105.187618 3.241942l3.056042-3.95774-11.702957-37.793113-5.620407-4.38166c-34.589394-1.831193-68.845212-3.064729-102.765717-3.690184-35.338203-0.653253-70.961335-0.48994-106.865922 0.48994-15.999484 0.326626-30.079169 1.3899-42.239055 3.188083-12.161623 1.796446-23.197428 4.739558-33.107414 8.825864-9.91346 4.086305-18.932173 9.560773-27.057875 16.425141-7.251802 6.125983-14.411524 13.94417-21.477426 23.452822l-5.373701 0.210222c-7.548893-8.857137-15.519969-18.299768-23.906276-28.320946-8.480126-10.13237-17.201748-19.80781-26.159652-29.017633l-5.733337 0.31099-26.731248 33.878808 0.500364 6.355316c10.563239 9.77447 20.784214 19.418638 30.657715 28.923816 9.906511 9.534713 19.790436 19.889466 29.646563 31.055573l3.099477 7.60449 6.26671 115.377321-4.107154 4.338224h-43.778369l-4.107154 4.336488 2.138708 39.379336 4.57972 4.336488h89.869185l4.107154-4.336488-8.850187-162.94143 1.945859-8.092691c7.098913-11.86627 14.559201-20.91278 22.370438-27.134319 7.543681-6.009579 16.105464-10.64142 25.676662-13.895524l2.628648 2.765901-10.664007 28.633674 2.010143 6.605498c4.689174 3.620689 7.587116 7.027681 8.690348 10.214027 1.35689 3.921255 2.098749 7.027681 2.222103 9.315803l16.011646 294.761265 4.579719 4.336488h220.295646l4.107154-4.336488-9.805743-180.514975c0.003475 0.003475 0.008687 0.006949 0.012161 0.010424l6.007842-1.143192 18.261547-26.666966-1.172728-5.973094c-10.75435-7.078065-21.911771-14.293382-33.472263-21.635528-11.612613-7.376893-23.214802-14.489706-34.799616-21.331487l-0.173738-4.677013c10.134107-7.036368 20.200456-14.138756 30.197311-21.307164 10.042026-7.201418 20.275164-14.600898 30.6942-22.200175l1.306506-6.304933-17.208697-29.286927-5.639519-1.092808c-25.582843 19.66187-51.872798 38.800791-78.85944 57.413286-27.030077 18.642031-54.76379 36.76285-83.202878 54.352032l-1.157091 5.804569 18.252859 25.315288 6.249337 1.263072c9.468692-5.783721 18.748011-11.569179 27.832744-17.3529 9.034349-5.75071 18.004415-11.504896 26.911935-17.255606l7.392529-0.158101c9.929097 5.839317 19.997184 11.808936 30.199049 17.903647 10.227925 6.112084 20.214355 12.486512 29.952341 19.116335l-0.760971 2.458385h-159.004538l-4.57972-4.336487-5.281619-97.237391 3.935154-3.125538 77.841339 22.584135 4.609255-3.109901 3.591153-35.487617-3.761416-5.429296c-3.985538-1.098021-9.39746-2.691194-16.221868-4.774306-9.638955-2.941375-20.360295-6.211115-32.158807-9.80748-11.800249-3.596366-24.099125-7.354307-36.898365-11.2773-11.108774-3.405255-21.284578-6.563802-30.520463-9.477379l0.128566-2.098749c5.271195-0.886061 10.910714-1.523678 16.913343-1.907638 7.653136-0.488202 16.213181-0.89996 25.673187-1.226586z m0.594182 317.807542l-1.499354-27.61036 4.107154-4.336488h133.996766l4.57972 4.336488 1.499354 27.61036-4.107154 4.336487h-133.996766l-4.57972-4.336487z m137.002425-104.591699l1.445496 26.630481-4.107154 4.336487h-133.996766l-4.57972-4.336487-1.445496-26.630481 4.107154-4.336487h133.996766l4.57972 4.336487z"  horiz-adv-x="1024" />
      
      <glyph glyph-name="gonglve" unicode="&#62692;" d="M695.04-42.7008H229.7344c-74.8032 0-135.424 59.5968-135.424 133.12V675.6352c0 73.5232 60.6208 133.12 135.424 133.12h465.3056c74.8032 0 135.424-59.5968 135.424-133.12v-585.2672c0-73.472-60.6208-133.0688-135.424-133.0688zM620.1344 567.0912h-325.12c-22.6304 0-40.96 18.3296-40.96 40.96s18.3296 40.96 40.96 40.96h325.12c22.6304 0 40.96-18.3296 40.96-40.96s-18.3296-40.96-40.96-40.96zM620.1344 404.6848h-325.12c-22.6304 0-40.96 18.3296-40.96 40.96s18.3296 40.96 40.96 40.96h325.12c22.6304 0 40.96-18.3296 40.96-40.96s-18.3296-40.96-40.96-40.96zM450.7136 242.3296h-155.648c-22.6304 0-40.96 18.3296-40.96 40.96s18.3296 40.96 40.96 40.96h155.6992c22.6304 0 40.96-18.3296 40.96-40.96s-18.3808-40.96-41.0112-40.96zM764.0064 345.344l40.0384-81.1008a32.57856 32.57856 0 0 1 24.5248-17.8176l89.4976-13.0048c26.6752-3.8912 37.376-36.7104 18.0224-55.5008l-64.768-63.1296a32.57344 32.57344 0 0 1-9.3696-28.8256l15.3088-89.1392c4.5568-26.5728-23.3472-46.848-47.2064-34.304l-80.0256 42.0864a32.6912 32.6912 0 0 1-30.3104 0l-80.0256-42.0864c-23.8592-12.544-51.7632 7.7312-47.2064 34.304l15.3088 89.1392c1.792 10.5472-1.6896 21.3504-9.3696 28.8256l-64.768 63.1296c-19.3024 18.8416-8.6528 51.6608 18.0224 55.5008l89.4976 13.0048c10.5984 1.536 19.7632 8.192 24.5248 17.8176l40.0384 81.1008c11.8272 24.1664 46.336 24.1664 58.2656 0zM830.464 246.1184l-1.9456 0.256c-10.5984 1.536-19.7632 8.192-24.5248 17.8176l-40.0384 81.1008c-11.9296 24.1664-46.4384 24.1664-58.368 0L665.6 264.2432a32.57856 32.57856 0 0 0-24.5248-17.8176l-89.4976-13.0048c-26.6752-3.8912-37.376-36.7104-18.0224-55.5008l64.768-63.1296a32.57344 32.57344 0 0 0 9.3696-28.8256l-15.3088-89.1392c-4.5568-26.5728 23.3472-46.848 47.2064-34.304l80.0256 42.0864c9.472 4.9664 20.7872 4.9664 30.3104 0l31.5904-16.64c29.8496 24.4224 48.896 61.2352 48.896 102.4v155.7504z"  horiz-adv-x="1024" />
      
      <glyph glyph-name="xinyongka" unicode="&#59200;" d="M550.912 21.333333h-298.666667a149.504 149.504 0 0 0-149.333333 149.333334V554.666667a149.504 149.504 0 0 0 149.333333 149.333333h554.666667a149.504 149.504 0 0 0 149.333333-149.333333v-108.501334a21.333333 21.333333 0 0 0-42.666666 0V554.666667a106.794667 106.794667 0 0 1-106.666667 106.666666h-554.666667a106.794667 106.794667 0 0 1-106.666666-106.666666v-384a106.794667 106.794667 0 0 1 106.666666-106.666667h298.666667a21.333333 21.333333 0 0 0 0-42.666667zM922.965333 490.666667H209.578667a21.333333 21.333333 0 0 0 0 42.666666h713.386666a21.333333 21.333333 0 0 0 0-42.666666zM764.288-7.978667a21.333333 21.333333 0 0 0-7.210667 1.28l-16.341333 5.845334c-197.589333 71.125333-167.466667 318.634667-166.101333 329.130666l3.669333 29.269334a21.333333 21.333333 0 0 0 14.037333 17.493333l164.821334 58.453333a21.418667 21.418667 0 0 0 14.250666 0l164.906667-58.453333a21.333333 21.333333 0 0 0 14.08-17.493333l3.626667-29.44c1.28-10.538667 29.312-258.645333-166.229334-328.96l-16.213333-5.845334a21.077333 21.077333 0 0 0-7.253333-1.28z m-145.28 347.178667l-2.048-16.341333c-1.194667-9.258667-27.434667-223.957333 138.24-283.562667l9.088-3.285333 9.045333 3.285333c163.626667 58.794667 139.605333 273.749333 138.368 283.562667l-2.048 16.341333-145.365333 51.541333zM746.154667 130.005333a21.333333 21.333333 0 0 0-16.469334 7.808l-48.298666 59.008a21.333333 21.333333 0 0 0 32.981333 27.050667l31.786667-38.826667 67.968 83.029334a21.333333 21.333333 0 1 0 33.024-26.965334l-84.48-103.253333a21.248 21.248 0 0 0-16.512-7.850667z"  horiz-adv-x="1024" />
      
      <glyph glyph-name="lvhangjiudian" unicode="&#58887;" d="M524.9-36.6H68.1c-17 0-30.8 13.8-30.8 30.8V634.7c0 52.7 42.9 95.6 95.6 95.6h228.9c106.9 0 193.8-86.9 193.8-193.8v-542.3c0.1-17-13.7-30.8-30.7-30.8zM98.9 25H494V536.6c0 72.9-59.3 132.2-132.2 132.2H133c-18.8 0-34-15.3-34-34V25zM769.5-36.6H524.9c-17 0-30.8 13.8-30.8 30.8V441.9c0 10.6 5.5 20.5 14.5 26.1 9 5.6 20.3 6.2 29.8 1.6L783 350.4c10.6-5.2 17.3-15.9 17.3-27.7v-328.4c0-17.1-13.8-30.9-30.8-30.9zM555.7 25h183.1V303.4l-183.1 89.2V25zM230.4 480.5h-66.1c-17 0-30.8 13.8-30.8 30.8s13.8 30.8 30.8 30.8h66.1c17 0 30.8-13.8 30.8-30.8s-13.8-30.8-30.8-30.8zM428.7 362.9H164.3c-17 0-30.8 13.8-30.8 30.8s13.8 30.8 30.8 30.8h264.5c17 0 30.8-13.8 30.8-30.8-0.1-17-13.8-30.8-30.9-30.8zM428.7 245.3H164.3c-17 0-30.8 13.8-30.8 30.8s13.8 30.8 30.8 30.8h264.5c17 0 30.8-13.8 30.8-30.8-0.1-17-13.8-30.8-30.9-30.8zM926.8-36.6H721.5c-17 0-30.8 13.8-30.8 30.8s13.8 30.8 30.8 30.8h205.2c17 0 30.8-13.8 30.8-30.8 0.1-17-13.7-30.8-30.7-30.8z"  horiz-adv-x="1024" />
      
      <glyph glyph-name="jipiao" unicode="&#63553;" d="M315.7504 259.6864s488.8576 228.352 539.0336 252.928c50.176 24.5248 44.5952 101.0176 32.4608 143.4112-41.6256-19.456-186.9824-102.1952-195.9936-106.7008-32.6656-16.4352-74.752-30.8736-116.9408-6.7072-52.224 29.952-220.3136 117.0944-220.3136 117.0944l-41.1648-23.552L499.0464 480.768c10.5984-8.8576 9.216-25.5488-2.6624-32.512l-171.008-100.352a50.51392 50.51392 0 0 0-39.0144-5.12l-78.4384 21.76-42.5472-22.9376 150.3744-81.92zM113.1008 330.5472l152.4224-82.0736c13.6192-7.3216 28.8256-11.008 43.9808-11.008 13.2096 0 26.4704 2.816 38.7072 8.448l526.8992 242.2272c29.4912 13.568 51.5072 37.9392 62.0032 68.608s8.0384 63.4368-6.9632 92.2112c-14.6944 28.2112-39.5776 48.7936-70.0416 58.0096-30.464 9.216-62.5664 5.888-90.4704-9.4208l-131.9936-72.448c-1.6384-0.8704-3.584-0.9728-5.2736-0.1536L364.3392 751.6672a53.03808 53.03808 0 0 1-48.4352-1.6384L244.3264 710.144a52.96128 52.96128 0 0 1-27.0336-41.8304 52.8896 52.8896 0 0 1 19.6096-45.7728l160.8192-129.1776-106.1888-58.3168-87.296 19.712c-11.8784 2.7136-24.3712 1.024-35.1232-4.6592l-55.6544-29.44c-16.6912-8.8576-27.136-26.0608-27.1872-44.9536s10.1888-36.1984 26.8288-45.1584z m81.3568 63.4368l87.3984-19.7632c12.1344-2.7648 24.8832-0.9728 35.84 5.0688L440.9344 446.976a51.2 51.2 0 0 1 26.3168 40.2944 50.86208 50.86208 0 0 1-18.8928 44.2368L285.184 662.5792l56.832 31.6416 264.0896-124.8256c19.4048-9.1648 42.24-8.4992 61.0816 1.8432l131.9936 72.448c13.2608 7.2704 28.5696 8.9088 43.0592 4.5056s26.368-14.1824 33.3312-27.648c7.168-13.6704 8.3456-29.2864 3.328-43.9296-5.0176-14.6432-15.4624-26.2144-29.5424-32.6656L322.56 301.7216c-8.9088-4.096-19.3024-3.7376-27.9552 0.8704l-135.2704 72.8576 35.1232 18.5344zM912.6912 195.0208h-284.7232c-16.9472 0-30.72-13.7728-30.72-30.72s13.7728-30.72 30.72-30.72h284.7232c16.9472 0 30.72 13.7728 30.72 30.72s-13.7216 30.72-30.72 30.72zM912.6912 82.3296H128.9728c-16.9472 0-30.72-13.7728-30.72-30.72s13.7728-30.72 30.72-30.72h783.7696c16.9472 0 30.72 13.7728 30.72 30.72s-13.7728 30.72-30.7712 30.72z"  horiz-adv-x="1024" />
      
      <glyph glyph-name="qichepiao1" unicode="&#64323;" d="M886.7328 485.888h-17.3056V619.8784c0 73.4208-56.3712 133.632-128.1536 139.8784v1.6896c0 20.48-16.5888 37.0688-37.0688 37.0688H317.8496c-20.48 0-37.0688-16.5888-37.0688-37.0688v-1.6896c-71.8336-6.1952-128.1536-66.4576-128.1536-139.8784V485.888h-23.7056c-16.64 0-30.1568-13.5168-30.1568-30.1568v-76.1344c0-16.64 13.5168-30.1568 30.1568-30.1568h23.7056v-174.4896c0-38.6048 15.616-73.5744 40.8064-98.9696v-53.4528c0-26.8288 21.76-48.5888 48.5888-48.5888h54.6816c26.8288 0 48.5888 21.76 48.5888 48.5888v12.032h334.7456v-12.032c0-26.8288 21.76-48.5888 48.5888-48.5888h54.6816c26.8288 0 48.5888 21.76 48.5888 48.5888v56.8832c23.296 25.088 37.5808 58.624 37.5808 95.5392v174.4896h17.3056c16.64 0 30.1568 13.5168 30.1568 30.1568V455.7312a30.21824 30.21824 0 0 1-30.208 30.1568zM306.944 142.2848c-35.1744 0-63.6928 28.5184-63.6928 63.6928 0 35.1744 28.5184 63.6928 63.6928 63.6928s63.6928-28.5184 63.6928-63.6928c-0.0512-35.1744-28.5184-63.6928-63.6928-63.6928z m407.7056 0c-35.1744 0-63.6928 28.5184-63.6928 63.6928 0 35.1744 28.5184 63.6928 63.6928 63.6928 35.1744 0 63.6928-28.5184 63.6928-63.6928 0-35.1744-28.5184-63.6928-63.6928-63.6928z m64.9728 243.9168H242.432V584.448c0 20.48 16.5888 37.0688 37.0688 37.0688h463.0528c20.48 0 37.0688-16.5888 37.0688-37.0688v-198.2464zM869.4272 619.8784c0 73.4208-56.3712 133.632-128.1536 139.8784v1.6896c0 20.48-16.5888 37.0688-37.0688 37.0688H317.8496c-20.48 0-37.0688-16.5888-37.0688-37.0688v-1.6896c-71.8336-6.1952-128.1536-66.4576-128.1536-139.8784V485.888h-23.7056c-16.64 0-30.1568-13.5168-30.1568-30.1568v-76.1344c0-16.64 13.5168-30.1568 30.1568-30.1568h23.7056v-174.4896c0-38.6048 15.616-73.5744 40.8064-98.9696v-53.4528c0-4.4544 0.6656-8.7552 1.792-12.8512 24.7296-3.1232 49.92-4.7104 75.4688-4.7104 24.6272 0 48.896 1.536 72.7552 4.4032 1.1776 4.1984 1.8432 8.6016 1.8432 13.1584v12.032h112.0256c80.384 26.2144 153.344 68.9152 214.8352 124.1088-12.9536 11.6736-21.1968 28.5184-21.1968 47.3088 0 35.1744 28.5184 63.6928 63.6928 63.6928 16.4352 0 31.3856-6.2976 42.7008-16.5376 61.952 85.248 102.0416 187.392 112.0768 298.24V619.8784zM306.944 142.2848c-35.1744 0-63.6928 28.5184-63.6928 63.6928 0 35.1744 28.5184 63.6928 63.6928 63.6928s63.6928-28.5184 63.6928-63.6928c-0.0512-35.1744-28.5184-63.6928-63.6928-63.6928z m472.6784 243.9168H242.432V584.448c0 20.48 16.5888 37.0688 37.0688 37.0688h463.0528c20.48 0 37.0688-16.5888 37.0688-37.0688v-198.2464zM250.7776 236.032c10.752 20.0192 31.8464 33.6384 56.1664 33.6384 9.8816 0 19.1488-2.304 27.4944-6.2976 70.5024 28.928 134.2976 70.912 188.416 122.88H242.432V584.448c0 20.48 16.5888 37.0688 37.0688 37.0688h394.496c19.456 55.6544 30.9248 115.0464 33.0752 176.8448-0.9728 0.0512-1.8944 0.1536-2.8672 0.1536H317.8496c-20.48 0-37.0688-16.5888-37.0688-37.0688v-1.6896c-71.8336-6.1952-128.1536-66.4576-128.1536-139.8784V485.888h-23.7056c-16.64 0-30.1568-13.5168-30.1568-30.1568v-76.1344c0-16.64 13.5168-30.1568 30.1568-30.1568h23.7056v-129.1776c33.5872 2.56 66.3552 7.8848 98.1504 15.7696zM242.432 584.448c0 20.48 16.5888 37.0688 37.0688 37.0688h114.3296c48.128 51.3536 87.3984 111.1552 115.2 176.9984H317.8496c-20.48 0-37.0688-16.5888-37.0688-37.0688v-1.6896c-71.8336-6.1952-128.1536-66.4576-128.1536-139.8784V485.888h-23.7056c-16.64 0-30.1568-13.5168-30.1568-30.1568v-7.168c50.688 12.4416 98.9184 31.2832 143.6672 55.7056V584.448z"  horiz-adv-x="1024" />
      
      <glyph glyph-name="huochepiao" unicode="&#65289;" d="M515.3792 387.5328m-450.816 0a450.816 450.816 0 1 1 901.632 0 450.816 450.816 0 1 1-901.632 0ZM801.28 137.0112l-114.5856 84.9408h26.4192c39.0144 0 70.6048 31.6416 70.6048 70.6048l-15.36 318.72c0 39.0144-31.6416 70.6048-70.6048 70.6048h-52.0192c-3.7376 15.1552-17.3568 26.4192-33.6896 26.4192H416.9216c-16.3328 0-29.952-11.264-33.6896-26.4192H331.2128c-39.0144 0-70.6048-31.6416-70.6048-70.6048l-15.36-318.72c0-39.0144 31.6416-70.6048 70.6048-70.6048h25.1392l-113.6128-84.992c-8.5504-6.4-4.0448-20.0192 6.656-20.0192h560.64c10.7008 0 15.2064 13.6704 6.6048 20.0704z m-475.4432 11.6736l30.208 27.5456 315.136-2.6624 22.2208-24.9344H325.8368z m361.8304 116.3264c-22.3232 0-40.3968 18.0736-40.3968 40.3968 0 22.3232 18.0736 40.3968 40.3968 40.3968 22.3232 0 40.3968-18.0736 40.3968-40.3968 0-22.3232-18.0736-40.3968-40.3968-40.3968zM409.7536 652.8512h209.4592v-26.4192H409.7536v26.4192zM318.9248 556.544a27.9552 27.9552 0 0 0 27.9552 27.9552h335.2064a27.9552 27.9552 0 0 0 27.9552-27.9552l15.36-138.5984a27.9552 27.9552 0 0 0-27.9552-27.9552H331.52a27.9552 27.9552 0 0 0-27.9552 27.9552l15.36 138.5984z m-20.224-251.136c0 22.3232 18.0736 40.3968 40.3968 40.3968 22.3232 0 40.3968-18.0736 40.3968-40.3968 0-22.3232-18.0736-40.3968-40.3968-40.3968-22.3232 0-40.3968 18.0736-40.3968 40.3968z m339.1488-83.456l18.2272-21.9136H372.3264l20.736 21.9136h244.7872z"  horiz-adv-x="1024" />
      
      <glyph glyph-name="feijipiao" unicode="&#65290;" d="M512.768 386.56m-450.816 0a450.816 450.816 0 1 1 901.632 0 450.816 450.816 0 1 1-901.632 0ZM720.384 658.176H307.6608c-38.7072 0-70.0928-31.3856-70.0928-70.0928v-403.712c0-38.7072 31.3856-70.0928 70.0928-70.0928h412.7232c38.7072 0 70.0928 31.3856 70.0928 70.0928V588.0832c0.0512 38.7072-31.3344 70.0928-70.0928 70.0928z m-30.208-166.6048l-72.6528-66.9696 28.928-200.4992c0.4096-2.7136-0.5632-5.4784-2.6112-7.3728l-19.456-18.1248c-3.9424-3.6352-10.24-2.7648-12.9536 1.8944l-83.5584 141.4656-56.1664-51.7632-12.6464-86.0672c-1.0752-7.3728-10.8032-9.2672-14.592-2.816l-42.8544 73.216-75.6224 45.056c-6.4 3.7888-4.4032 13.5168 2.9184 14.5408l87.6544 12.2368 52.2752 54.6304-138.2912 79.872a8.3968 8.3968 0 0 0-1.8944 13.056l18.944 20.0704c1.8944 1.9968 4.7104 2.9696 7.424 2.5088l194.6112-31.1296 72.3456 75.6224c19.2 20.0192 51.2 20.0192 70.3488-0.0512 18.8928-19.6608 17.8688-50.944-2.1504-69.376z"  horiz-adv-x="1024" />
      
    </font>
</defs>
</svg>
